<?xml version="1.0" standalone="no"?><!DOCTYPE svg PUBLIC "-//W3C//DTD SVG 1.1//EN" "http://www.w3.org/Graphics/SVG/1.1/DTD/svg11.dtd"><svg t="1575720999404" class="icon" viewBox="0 0 1024 1024" version="1.1" xmlns="http://www.w3.org/2000/svg" p-id="4895" xmlns:xlink="http://www.w3.org/1999/xlink" width="14" height="14"><defs><style type="text/css"></style></defs><path d="M300.032 936.96l-167.936 81.92q-20.48 10.24-33.28 1.024t-9.728-32.768l24.576-189.44Q59.392 734.208 29.696 656.384 0 576.512 0 490.496q0-133.12 69.632-247.808Q138.24 132.096 253.952 66.56 372.736 0 512 0t258.048 66.56q115.712 65.536 184.32 176.128Q1024 357.376 1024 490.496t-69.632 247.808q-68.608 110.592-184.32 176.128-118.784 66.56-258.048 66.56-111.616 0-211.968-44.032z m-126.976-157.696l-21.504 166.912 147.456-72.704q99.328 50.176 212.992 50.176 123.904 0 230.4-59.392 102.4-57.344 162.816-155.648 61.44-100.352 61.44-218.112t-61.44-218.112Q844.8 174.08 742.4 115.712 635.904 57.344 512 57.344T281.6 115.712Q179.2 174.08 118.784 272.384q-61.44 100.352-61.44 218.112 0 81.92 30.72 157.696 29.696 72.704 84.992 131.072z m111.616-263.168q-23.552 0-40.448-16.896t-16.896-40.448 16.896-39.936 40.448-16.384 39.936 16.384 16.384 39.936-16.384 40.448-39.936 16.896zM541.696 512q-23.552 0-40.448-16.384t-16.896-39.936 16.896-40.448 40.448-16.896 39.936 16.896 16.384 40.448-16.384 39.936-39.936 16.384z m238.592 4.096q-23.552 0-39.936-16.896t-16.384-40.448 16.384-39.936 39.936-16.384 40.448 16.384 16.896 39.936-16.896 40.448-40.448 16.896z" fill="#ffffff" p-id="4896"></path></svg>