<?xml version="1.0" standalone="no"?><!DOCTYPE svg PUBLIC "-//W3C//DTD SVG 1.1//EN" "http://www.w3.org/Graphics/SVG/1.1/DTD/svg11.dtd"><svg t="1578724882168" class="icon" viewBox="0 0 1024 1024" version="1.1" xmlns="http://www.w3.org/2000/svg" p-id="1927" xmlns:xlink="http://www.w3.org/1999/xlink" width="14" height="14"><defs><style type="text/css"></style></defs><path d="M853.333333 128h-91.733333V79.786667a42.666667 42.666667 0 0 0-85.333333 0V128H341.333333V79.786667a42.666667 42.666667 0 0 0-85.333333 0V128H170.666667a128 128 0 0 0-128 128v597.333333a128 128 0 0 0 128 128h682.666666a128 128 0 0 0 128-128V256a128 128 0 0 0-128-128zM170.666667 213.333333h85.333333v38.826667a42.666667 42.666667 0 1 0 85.333333 0V213.333333h335.786667v38.826667a42.666667 42.666667 0 0 0 85.333333 0V213.333333H853.333333a42.666667 42.666667 0 0 1 42.666667 42.666667v85.333333H128V256a42.666667 42.666667 0 0 1 42.666667-42.666667z m682.666666 682.666667H170.666667a42.666667 42.666667 0 0 1-42.666667-42.666667V426.666667h768v426.666666a42.666667 42.666667 0 0 1-42.666667 42.666667z" p-id="1928"></path><path d="M768 512H256a42.666667 42.666667 0 0 0 0 85.333333h512a42.666667 42.666667 0 0 0 0-85.333333zM583.253333 682.666667H256a42.666667 42.666667 0 1 0 0 85.333333h329.386667a42.666667 42.666667 0 0 0 0-85.333333z" p-id="1929"></path></svg>