<?xml version="1.0" standalone="no"?><!DOCTYPE svg PUBLIC "-//W3C//DTD SVG 1.1//EN" "http://www.w3.org/Graphics/SVG/1.1/DTD/svg11.dtd"><svg t="1578824991857" class="icon" viewBox="0 0 1024 1024" version="1.1" xmlns="http://www.w3.org/2000/svg" p-id="18307" xmlns:xlink="http://www.w3.org/1999/xlink" width="14" height="14"><defs><style type="text/css"></style></defs><path d="M948.419048 570.026667c1.560381 4.87619 2.389333 9.99619 2.438095 15.11619a53.638095 53.638095 0 0 1 0 8.777143v34.133333c0 253.561905-197.485714 395.946667-438.857143 395.946667s-438.857143-142.384762-438.857143-395.946667C73.142857 325.729524 276.48 0 512 0 731.428571 0 926.47619 285.744762 948.419048 570.026667zM236.982857 341.333333h323.779048a48.761905 48.761905 0 0 1 0 97.52381H199.92381a725.577143 725.577143 0 0 0-22.430477 97.523809H243.809524a48.761905 48.761905 0 0 1 0 97.52381H170.666667c2.925714 187.733333 150.186667 292.571429 341.333333 292.571428s338.407619-104.838095 341.333333-292.571428h-438.857143a48.761905 48.761905 0 0 1 0-97.52381h432.030477c-34.133333-225.28-185.295238-438.857143-334.506667-438.857142-104.350476 0-209.67619 104.350476-275.017143 243.809523z" p-id="18308" fill="#ffffff"></path></svg>