<?xml version="1.0" standalone="no"?><!DOCTYPE svg PUBLIC "-//W3C//DTD SVG 1.1//EN" "http://www.w3.org/Graphics/SVG/1.1/DTD/svg11.dtd"><svg t="1575720740805" class="icon" viewBox="0 0 1024 1024" version="1.1" xmlns="http://www.w3.org/2000/svg" p-id="2469" width="14" height="14" xmlns:xlink="http://www.w3.org/1999/xlink"><defs><style type="text/css"></style></defs><path d="M687.008 765.024l-115.072 111.232c-19.872 19.936-47.392 28.256-77.792 28.256s-57.888-8.32-77.824-28.256l-184.832-186.144c-19.936-19.936-29.952-49.056-29.952-79.488s10.016-57.888 29.952-77.824l184.288-186.88c19.936-19.936 48-27.52 78.368-27.52s57.888 8.32 77.792 28.256l115.072 111.2c21.92 21.984 58.24 21.216 81.056-1.632 22.816-22.88 23.584-59.168 1.664-81.12l-111.328-112.48a215.36 215.36 0 0 0-102.88-56.768l-1.44-0.288 105.248-106.784c22.016-21.92 21.248-58.272-1.568-81.12s-59.168-23.552-81.152-1.632L145.664 447.008c-41.856 41.888-63.744 99.712-63.744 163.616s21.888 123.52 63.744 165.344l185.472 186.08C372.992 1003.808 430.848 1024 494.72 1024s121.728-21.856 163.616-63.744l111.328-112.512c21.92-21.92 21.152-58.24-1.664-81.056s-59.136-23.584-81.024-1.664z m200.928-209.92H455.072c-29.952 0-54.176 25.76-54.176 57.44s24.224 57.44 54.176 57.44h432.864c29.92 0 54.176-25.76 54.176-57.44s-24.288-57.44-54.176-57.44z" fill="#ffffff" p-id="2470"></path></svg>